<?xml version="1.0" encoding="utf-8"?>
<!-- Generator: Adobe Illustrator 26.5.0, SVG Export Plug-In . SVG Version: 6.00 Build 0)  -->
<svg version="1.1" id="Layer_1" xmlns="http://www.w3.org/2000/svg" xmlns:xlink="http://www.w3.org/1999/xlink" x="0px" y="0px"
	 viewBox="0 0 75 75" style="enable-background:new 0 0 75 75;" xml:space="preserve">
<style type="text/css">
	.st0{clip-path:url(#SVGID_00000034793764852620108660000014398349573528304307_);}
	.st1{fill-rule:evenodd;clip-rule:evenodd;fill:#E77204;}
	.st2{fill:#E77204;}
	.st3{fill:none;stroke:#333E48;stroke-width:2.3;stroke-linecap:round;}
	.st4{fill:#333E48;stroke:#333E48;stroke-width:0.75;}
</style>
<g>
	<defs>
		<rect id="SVGID_1_" width="31" height="31"/>
	</defs>
	<clipPath id="SVGID_00000065036599293970789340000006890465984910843288_">
		<use xlink:href="#SVGID_1_"  style="overflow:visible;"/>
	</clipPath>
	<g style="clip-path:url(#SVGID_00000065036599293970789340000006890465984910843288_);">
		<g>
			<path class="st1" d="M30.8,30.7C30.8,30.7,30.8,30.7,30.8,30.7v0.1h0c0,0,0,0,0,0l0,0v0l-0.1,0c0,0,0,0,0,0l0,0c0,0,0,0,0,0
				l-0.2,0c0,0,0.2,0,0.3,0c0.1,0-0.4,0.1-0.7,0.1c-0.4,0-0.4,0-0.4-0.1c0,0,0,0-0.3-0.1l-0.7,0l0,0c-0.1,0-0.1,0-0.2,0c0,0,0,0,0,0
				c0,0-0.2,0-0.5,0c-0.1,0-0.3,0-0.4,0l0.1,0c-0.4,0-0.8,0-1.1,0c-0.3,0-0.5,0-0.8,0l-0.4,0.1l-0.1,0c-0.1,0-0.1,0-0.2,0
				c-0.1,0-0.2,0-0.5,0c-0.8,0-1.6,0-2.4,0c-0.7,0-1.4,0-2,0c0,0,0,0,0.1,0c-0.6-0.1-1.1,0-1.6,0c-0.5,0-0.9,0.1-1.5,0l0.1,0
				c-0.3,0-0.3,0-0.2,0c0,0,0.1,0-0.1,0c-0.1,0-0.4,0-0.7,0.1c-0.2,0-0.3,0-0.4,0c0,0,0.1,0,0.2,0c0,0,0.1,0,0.1,0c0,0,0,0,0,0
				c0,0-0.1,0-0.2,0c-0.3,0.1-0.8,0.1-1.3,0.1h0h0c-0.2,0-0.4,0-0.5,0c0,0-0.2,0-0.4-0.1c-0.2,0-0.4,0-0.5-0.1c-0.1,0-0.2,0-0.3,0.1
				l0.1,0h0l0,0c0,0,0,0,0,0l0,0l0,0l0,0c0,0,0,0,0,0v0h-0.1l0,0c-0.2,0-0.4,0-0.5,0l0.1,0c0.2,0,0.3,0,0.4,0l0,0c0,0,0.1,0,0.1,0
				l0,0h0c0.1,0,0.2,0,0.2,0c0.1,0,0.1,0,0.1,0c0,0-0.1,0-0.1,0c0,0-0.1,0-0.2,0h0c-0.2,0-0.4,0-0.5,0c-0.1,0-0.2,0-0.3,0h0l0,0
				c-0.1,0-0.2,0-0.2,0l0,0c0,0,0,0-0.1,0c-0.3,0-0.8,0-1.1,0.1c0,0-0.1,0-0.1,0l0,0l0,0c0.2,0,0.1-0.1,0-0.1c-0.1,0-0.1,0-0.1,0
				c0,0,0.4,0,0.8,0c0,0-0.1,0-0.1,0c-0.2,0-0.4,0-0.6,0c-0.2,0-0.4,0-0.7,0l0,0c0,0,0.1,0,0.1,0c-0.2,0-0.4,0-0.5,0
				c-0.1,0-0.5-0.1-0.8-0.1c0,0-0.1,0-0.1,0c-0.1,0-0.1,0-0.4,0l0.2,0c-0.2,0-0.3,0-0.4,0c-0.1,0-0.1,0-0.3,0c0.1,0,0.1,0,0,0
				c-0.4,0-0.4,0-0.7,0.1l0,0c0,0-0.1,0-0.1,0c0,0,0,0,0,0l0.1,0l-0.1,0c-0.4,0-1,0.1-1.1,0C6,31,5.5,31,5.1,31h0
				c-0.1,0-0.2,0-0.3,0c0.1,0,0.1,0,0.1,0l0,0c-0.5,0-1,0-1.4,0c-0.2,0-0.5,0-0.7,0l-0.1-0.1c-0.2,0-0.3,0-0.4,0.1
				C2.1,31,2,31,1.8,31L2,31c-0.4,0-0.6,0-0.9,0c-0.3,0-0.5,0-0.8,0l0,0c-0.1,0-0.2,0-0.3,0c0-0.1,0-0.3,0-0.4l0,0l0,0
				c0-0.1,0-0.1,0-0.2c0-0.2,0.1-0.5,0.1-0.8l0,0l0,0v0c0-0.1,0-0.3,0-0.4l0-0.2c0-0.5,0.1-1,0.2-1.4l-0.1-0.1c0-0.1,0-0.1,0-0.2
				c0-0.3,0.1-0.6,0.1-0.7l0,0.1c0,0,0-0.1,0.1-0.2c0-0.1,0-0.2,0-0.3c0-0.2,0-0.3,0-0.2c0-0.2,0.1-0.5,0.1-0.7c0-0.1,0-0.2,0-0.3
				l0,0c0-0.2,0.1-0.3,0.1-0.5c0.1-0.5,0.2-1,0.3-1.2c0.1-0.2,0.1-0.5,0.2-0.7l0,0c0.1-0.6,0.3-1.1,0.5-1.8l0,0c0,0,0-0.1,0-0.1
				c0.1-0.1,0.1-0.3,0.2-0.5C2,20,2.1,19.8,2.1,19.8c0.1-0.3,0.2-0.5,0.2-0.7l0-0.1c0,0,0-0.1,0-0.1c0.1-0.3,0.2-0.6,0.4-1l0,0.2
				C2.8,18,2.9,17.7,3,17.6l0,0c0,0,0,0,0,0c0,0,0,0,0,0c0.1-0.1,0.1-0.2,0.1-0.3c0,0,0-0.1,0.1-0.1l0,0.1c0.2-0.3,0.4-0.7,0.5-1.1
				c0.2-0.4,0.4-0.8,0.6-1.2c-0.1,0.1,0,0.1,0,0c0.1-0.2,0.4-0.7,0.6-1.1c0.1-0.2,0.2-0.3,0.2-0.4l-0.1,0.2c0.1-0.2,0.2-0.3,0.2-0.3
				c0.1-0.1,0.1-0.1,0.2-0.2l0,0c0.1-0.1,0.2-0.2,0.4-0.5L5.6,13c0.2-0.2,0.3-0.4,0.2-0.4C5.9,12.5,6,12.5,6,12.5c0,0,0.1,0,0.2-0.3
				c0,0,0,0.1-0.1,0.1c0,0.1-0.1,0.1,0,0.1l0.5-0.5c0,0,0.1-0.1,0.2-0.3c-0.1,0,0-0.1,0.1-0.2c0.1-0.1,0.1-0.1,0,0
				c0.4-0.5,0.8-0.9,1.1-1.3c0.2-0.2,0.4-0.5,0.6-0.7C8.7,9.4,8.8,9.3,9,9.1C9.1,9,9.2,8.9,9.3,8.8c0.3-0.2,0.5-0.4,0.5-0.4
				c0.1-0.1,0.2-0.2,0.3-0.3c0.1-0.1,0.1-0.1,0.2-0.2c0.1-0.1,0.2-0.3,0.3-0.4c-0.1,0-0.1,0.1-0.2,0.2c0,0,0,0-0.1,0.1
				c0.1-0.1,0.5-0.5,0.7-0.6c-0.1,0.1-0.1,0.1-0.2,0.2l0,0c-0.2,0.2-0.4,0.4-0.5,0.5c0.2-0.2,0.5-0.5,0.7-0.7l0,0l0,0
				c0.1-0.1,0.1-0.1,0.2-0.2c0,0,0.1,0,0.1,0c0,0,0,0,0,0c0.1-0.1,0.2-0.2,0.3-0.2c0.1,0,0.1-0.1,0.3-0.2l-0.1,0
				c0.2-0.2,0.4-0.3,0.5-0.4c0.1-0.1,0.2-0.2,0.5-0.4l0,0c0.1,0,0.1-0.1,0.2-0.2c0.1-0.1,0.3-0.2,0.4-0.3L13,5.7
				c0,0,0.2-0.1,0.3-0.1c0,0,0.1-0.1,0.1-0.1c0.2-0.1,0.2-0.2,0.2-0.2c0,0,0,0,0.1-0.1c0.1,0,0.1,0,0,0c0,0-0.1,0-0.1,0.1l0,0
				c0.4-0.3,0.9-0.6,1.2-0.8c0,0,0,0,0,0c0.2-0.1,0.4-0.2,0.5-0.3c0.2-0.1,0.4-0.2,0.5-0.3L15.8,4c0.1-0.1,0.3-0.2,0.5-0.3
				c0.2-0.1,0.4-0.3,0.5-0.2c0.1,0,0,0,0,0c-0.1,0.1-0.2,0.1-0.1,0.1C17,3.5,17,3.4,17.1,3.3c0.1-0.1,0.1-0.1,0.4-0.2c0,0,0,0,0,0
				c0,0,0,0,0,0c0.3-0.2,0.8-0.4,1.2-0.5c0.2-0.1,0.6-0.2,1-0.4c0,0,0.1,0,0.1,0C20,2.1,20.3,2,20.6,1.9c-0.1,0,0,0,0.1-0.1
				c0,0,0.1,0,0.1,0c0,0,0,0,0,0c0.1,0,0.2-0.1,0.2-0.1c0,0,0,0,0.1,0c0.1,0,0.2-0.1,0.4-0.1c0.1,0,0.2-0.1,0.3-0.1
				c0,0,0.1,0,0.2-0.1c0,0,0.1,0,0.1,0c-0.2,0.1-0.2,0.1-0.2,0.1c0,0,0,0-0.1,0.1c0.3-0.1,0.4-0.1,0.6-0.2c0.2-0.1,0.3-0.1,0.6-0.2
				c0,0,0.1,0,0.1,0c0.1,0,0.1,0,0.2,0c0,0,0.2-0.1,0.4-0.1c0.1,0,0.2,0,0.2-0.1c0,0,0.1,0,0.1,0c0.1,0,0.2,0,0.2,0
				c0.1,0,0.2-0.1,0.3-0.1c0.2,0,0.3-0.1,0.3-0.1c-0.1,0-0.1,0-0.2,0c0,0-0.1,0-0.1,0c0.3-0.1,0.6-0.1,0.8-0.2
				c0.3-0.1,0.6-0.1,0.9-0.2l0,0.1c0.2,0,0.3,0,0.5-0.1c0.2,0,0.3-0.1,0.5-0.1c0,0,0,0,0,0c0,0,0,0,0,0c0,0,0,0,0.1,0c0,0,0,0,0.1,0
				c-0.1,0-0.2,0-0.3,0c-0.1,0-0.2,0-0.3,0.1l0.5-0.1l-0.8,0.1c0,0,0.1,0,0.1,0c0.1,0,0.2,0,0.2,0c0,0,0,0-0.1,0c0,0,0,0,0,0
				c0.2,0,0.4,0,0.5-0.1c0.1,0,0.2,0,0.5-0.1c0.1,0,0.1,0,0.1,0c0,0,0,0,0.1,0c0.2,0,0.4,0,0.6,0c0.1,0,0.3,0,0.4,0c0,0,0,0,0,0
				c0.1,0,0.1,0,0.2,0c0.2,0,0.3,0,0.3-0.1l-0.2,0c0.1,0,0.1,0,0.2,0c0,0,0,0,0,0c0.1,0,0.2,0,0.4,0c0.2,0,0.3-0.1,0.1-0.1
				c0.1,0,0.3,0,0.2,0c0.3,0,0.3,0,0.4-0.1l0,0c0,0,0.1,0,0.1,0c0,0,0.1,0,0.1,0c0.1,0,0.1,0,0.2,0c-0.1,0-0.1,0-0.1,0
				c0.1,0,0.3,0,0.4,0c-0.2,0-0.1,0-0.1,0c0,0,0,0,0,0c0,0,0,0,0,0c0,0-0.1,0-0.1,0c0,0,0,0-0.1,0c0,0-0.1,0-0.1,0c0,0,0.2,0,0.5,0
				l0,0v0.3c0,0,0,0.1,0,0.1c0,0.2,0,0.1,0.1,0.1c0,0,0,0,0,0c0,0,0,0.1,0,0.2c0,0,0,0.1,0,0.1l0-0.1c0,0.1,0,0.2,0,0.4L31,1
				c0,0.1,0,0.2,0,0.3c0,0.2,0,0.5,0,0.8l0,0c0-0.1,0-0.3-0.1,0c0,0.3,0,0.3,0,0.3c0,0,0,0,0,0.1c0,0.2,0,0.3,0,0.3
				c0,0.1,0,0.1,0,0.5c0,0.1,0,0,0-0.1c0,0.2,0,0.4,0,0.6c0,0.2,0,0.4,0,0.6c0-0.2,0-0.3,0-0.1c0-0.1,0,0.1,0,0.3c0,0.1,0,0.2,0,0.3
				l0,0c0,0.1,0,0,0-0.1l0,0c0,0,0,0,0-0.1c0-0.2-0.1-0.2-0.1,0.2c0,0.4,0.1,0.3,0.1,0.3c0,0.3,0,0.4,0,0.5c0,0.1,0,0.2,0,0.5
				c0,0,0,0.1,0,0.2c0,0.2-0.1,0.4-0.1,0.6c0,0.1,0,0,0-0.1c0-0.1,0-0.2,0-0.1c-0.1,0.3,0,0.7,0,1c0,0.3,0,0.7,0,1l-0.1-0.1
				c0,0,0,0.1,0,0.1c0,0.1,0,0.3,0,0.5l0-0.3c0,0.2,0,0.6,0,0.5c0,0.3,0,0.5,0,0.7c0,0.1,0,0.1,0,0.2c0-0.1,0-0.1,0-0.2c0,0,0,0,0,0
				c0,0,0,0,0,0c0,0,0,0,0-0.1c0,0.3,0,0.4,0,0.6c0,0.1,0,0.1,0,0.2c0-0.1,0,0.1,0,0.2c0,0.2,0,0.4,0,0.7c0,0.2,0,0.3,0,0.5h0
				c0,0.3,0,0.6,0,0.9c0,0.4,0,0.7,0,1.1l0,0c0,0,0,0,0,0.1c0,0,0,0.1,0,0.1v0l0-0.1c0-0.1,0,0.1,0,0.4c0,0.1,0,0.3,0,0.4
				c0,0,0,0,0,0c0,0,0,0.1,0,0.2c0,0,0,0.1,0,0.2c0,0.1,0,0.1,0,0.2c0,0.1,0,0.1,0,0.1c0,0,0,0,0,0.3c0,0.2,0,0.2,0,0.2
				c0,0.1,0,0.3,0,0.5c0,0,0-0.1,0-0.2c0,0,0-0.1,0-0.1c0,0,0,0,0,0c0,0,0,0.1,0,0.1c0,0.1,0,0.1,0,0.1c0,0,0,0.1,0,0.2l0-0.2
				c0,0.1,0,0.2,0,0.2c0-0.1,0-0.1,0-0.1V17c0,0.1,0,0,0.1,0c0,0,0-0.1,0-0.1c0,0.3,0,0.6,0,0.9c0,0.1,0,0.3,0,0.4l0-0.1
				c0,0.1,0,0.2,0,0.3v0l0,0.1c0,0,0,0,0,0v0.3c0-0.2,0-0.2-0.1-0.2c0,0.1,0,0.2,0,0.2c0,0.3,0,0.5,0.1,0.6l0,0c0,0.2,0,0.4,0,0.6
				c0,0.3,0,0.7,0,0.6c0,0.2,0,0.3,0,0.5c0,0.1,0,0.3,0,0.4l0,0c0,0,0,0.1,0,0.1c0,0,0,0,0,0c0,0,0,0,0,0c0,0.1,0,0.2,0,0.4
				c0,0.2,0,0.4,0,0.5c0,0.2,0,0.2,0,0.1c0-0.1,0-0.1,0-0.2c0,0.1,0,0.3,0,0.4c0,0.2,0,0.3,0,0.3c0,0.2,0,0.2,0,0.1
				c0-0.1,0-0.1,0-0.1c0,0,0,0.3,0,0.5c0,0.2,0,0.4,0,0.5c0,0.1,0,0,0,0c0,0,0-0.1,0,0.1c0,0,0,0.1,0,0.2l0,0.1L30.8,25v0.2
				c0,0.1,0,0.1,0,0.1c0,0,0,0,0,0.4l0,0c0,0.1,0,0.2,0,0.4c0,0.2,0,0.4,0,0.6c0-0.1,0-0.1,0-0.1c0,0,0,0,0,0l0,0.3c0,0,0,0,0,0
				c0,0.1,0,0.2,0,0.2c0,0.1,0,0.1,0,0.3c0-0.1,0-0.1,0-0.1v0.3l0,0.2l0-0.1v0.6c0,0.1,0,0.3,0,0.4V30.7z M30.8,18.8
				c0-0.1,0-0.1,0-0.2L30.8,18.8C30.8,18.7,30.8,18.7,30.8,18.8z M30.8,19.3L30.8,19.3C30.8,19.4,30.8,19.3,30.8,19.3z M30.8,20.1
				v-0.2C30.8,20,30.8,20,30.8,20.1C30.8,20.1,30.8,20.1,30.8,20.1z M30.8,20.5L30.8,20.5C30.8,20.6,30.8,20.6,30.8,20.5z
				 M30.8,22.5L30.8,22.5L30.8,22.5L30.8,22.5z M30.8,26.8v-0.4C30.8,26.5,30.8,26.6,30.8,26.8C30.8,26.8,30.8,26.8,30.8,26.8z
				 M30.9,21.7c0,0,0-0.1,0-0.1C30.8,21.6,30.9,21.7,30.9,21.7z M12.7,31c-0.1,0-0.2,0-0.2,0L12.7,31L12.7,31
				C12.7,30.9,12.7,30.9,12.7,31L12.7,31z"/>
			<path class="st2" d="M30.8,16.9C30.8,16.9,30.8,16.9,30.8,16.9C30.8,16.9,30.8,16.9,30.8,16.9L30.8,16.9z"/>
			<path class="st2" d="M31,0L31,0C31,0,30.9,0,31,0C30.9,0,31,0,31,0L31,0z"/>
			<path class="st2" d="M31,0L31,0c0,0.1,0,0.1,0,0.2L31,0z"/>
			<path class="st2" d="M28.5,0.2C28.6,0.2,28.6,0.2,28.5,0.2C28.6,0.2,28.6,0.2,28.5,0.2z"/>
			<path class="st2" d="M28.6,0.2C28.6,0.2,28.6,0.2,28.6,0.2C28.7,0.2,28.7,0.2,28.6,0.2C28.6,0.2,28.6,0.2,28.6,0.2z"/>
			<path class="st2" d="M20.7,1.8C20.7,1.8,20.7,1.8,20.7,1.8C20.7,1.8,20.7,1.8,20.7,1.8z"/>
			<path class="st2" d="M7.8,30.9C7.8,30.9,7.8,30.9,7.8,30.9C7.8,30.9,7.8,30.9,7.8,30.9z"/>
			<path class="st2" d="M10.5,30.9C10.5,30.9,10.5,30.9,10.5,30.9L10.5,30.9L10.5,30.9z"/>
			<path class="st2" d="M13.1,30.9L13.1,30.9C13.1,30.9,13.1,30.9,13.1,30.9z"/>
			<path class="st2" d="M20.3,30.9C20.3,30.9,20.3,30.9,20.3,30.9L20.3,30.9C20.3,30.9,20.3,30.9,20.3,30.9z"/>
			<path class="st2" d="M30.9,3L30.9,3C30.9,3.1,30.9,3,30.9,3z"/>
			<path class="st2" d="M30.9,4.6c0,0.1,0,0.1,0,0.1C30.9,4.7,30.9,4.6,30.9,4.6z"/>
			<path class="st2" d="M30.9,14l0,0.3c0,0,0-0.1,0-0.1C30.8,14,30.8,14,30.9,14z"/>
			<path class="st2" d="M30.9,16.1C30.9,16.1,30.9,16.1,30.9,16.1C30.9,16.1,30.9,16.1,30.9,16.1z"/>
			<path class="st2" d="M30.6,0L30.6,0C30.8,0,30.7,0,30.6,0z"/>
			<path class="st2" d="M6.5,11.8C6.7,11.7,6.6,11.8,6.5,11.8C6.5,12,6.4,12.1,6.5,11.8C6.6,11.9,6.6,11.9,6.5,11.8L6.5,11.8
				L6.5,11.8C6.7,11.7,6.7,11.6,6.5,11.8z"/>
			<path class="st2" d="M23.7,0.9C23.7,0.9,23.7,0.9,23.7,0.9C23.7,0.9,23.7,0.9,23.7,0.9z"/>
			<path class="st2" d="M28.8,0.2l-0.1,0C28.7,0.2,28.8,0.2,28.8,0.2z"/>
			<path class="st2" d="M21.1,1.7C21.1,1.7,21.1,1.7,21.1,1.7L21.1,1.7C21.1,1.7,21,1.7,21.1,1.7c-0.1,0-0.1,0-0.1,0c0,0,0,0,0,0
				C21,1.7,21,1.7,21.1,1.7C21,1.7,21,1.7,21.1,1.7z"/>
			<path class="st2" d="M18.5,2.6L18.5,2.6L18.5,2.6L18.5,2.6z"/>
			<path class="st2" d="M18.5,2.6l0.1-0.1L18.5,2.6L18.5,2.6z"/>
			<path class="st2" d="M30.8,23.8l0,0.5l0,0c0-0.1,0-0.2,0,0c0-0.3,0-0.3,0-0.3C30.9,24.1,30.8,24.1,30.8,23.8z"/>
			<path class="st2" d="M30.9,22.3C30.9,22.3,30.9,22.4,30.9,22.3C30.9,22,30.9,22,30.9,22.3L30.9,22.3
				C30.9,22.2,30.9,22.2,30.9,22.3z"/>
			<path class="st2" d="M30.9,10.8L30.9,10.8C30.9,10.8,30.9,10.8,30.9,10.8z"/>
			<path class="st2" d="M30.9,10.8L30.9,10.8C30.9,10.7,30.9,10.7,30.9,10.8C30.9,10.8,30.9,10.8,30.9,10.8z"/>
			<path class="st2" d="M30.9,7.3L30.9,7.3l0-0.3L30.9,7.3z"/>
			<path class="st2" d="M18.9,2.4L18.9,2.4C19.1,2.4,19.2,2.3,18.9,2.4z"/>
			<path class="st2" d="M11.8,6.6c-0.1,0-0.3,0.2-0.4,0.3c0.1,0,0.1-0.1,0.2-0.1C11.7,6.7,11.8,6.7,11.8,6.6z"/>
			<path class="st2" d="M0.1,27.7l0,0.2l0,0.1L0.1,27.7z"/>
		</g>
	</g>
</g>
<line class="st3" x1="11.1" y1="73.8" x2="62.8" y2="73.8"/>
<path class="st4" d="M70.1,33c-0.4-0.5-1.1-0.6-1.5-0.2L67.1,34C66.6,17.9,53.3,5,37.1,5C23.4,5,11.4,14.3,8.1,27.6
	c-0.2,0.6,0.2,1.2,0.8,1.3c0.6,0.2,1.2-0.2,1.3-0.8c3.3-12.3,14.3-20.9,27-20.9c14.9,0,27.2,11.9,27.7,26.7l-1.4-1.2
	c-0.5-0.4-1.2-0.3-1.5,0.2c-0.4,0.5-0.3,1.2,0.2,1.5l3.3,2.7c0.2,0.2,0.4,0.3,0.7,0.3c0.3,0,0.5-0.1,0.7-0.3l3.3-2.7
	C70.5,34.1,70.5,33.5,70.1,33z"/>
<path class="st4" d="M65.4,41c-0.6-0.2-1.2,0.2-1.3,0.8C61,54.2,49.9,62.7,37.2,62.7C22.2,62.7,10,50.8,9.5,36l1.4,1.2
	c0.2,0.2,0.4,0.3,0.7,0.3c0.3,0,0.6-0.1,0.8-0.4c0.4-0.5,0.3-1.2-0.2-1.5l-3.2-2.7c-0.4-0.3-1-0.3-1.4,0l-3.3,2.7
	c-0.5,0.4-0.6,1.1-0.2,1.5c0.4,0.5,1.1,0.6,1.5,0.2L7.3,36C7.8,52.1,21,65,37.2,65c13.7,0,25.7-9.3,29.1-22.6
	C66.4,41.8,66,41.2,65.4,41z"/>
<path class="st4" d="M36.7,13.1c-0.6,0-1.1,0.5-1.1,1.1v5.1h-1.1c-4.6,0-8.4,3.8-8.4,8.4s3.8,8.4,8.4,8.4c0.6,0,1.1-0.5,1.1-1.1
	c0-0.6-0.5-1.1-1.1-1.1c-3.4,0-6.2-2.8-6.2-6.2s2.8-6.2,6.2-6.2h8.9c0.6,0,1.1-0.5,1.1-1.1c0-0.6-0.5-1.1-1.1-1.1h-5.5v-5.1
	C37.9,13.6,37.4,13.1,36.7,13.1z"/>
<path class="st4" d="M36.7,56.9c0.6,0,1.1-0.5,1.1-1.1v-5.1H39c4.6,0,8.4-3.8,8.4-8.4c0-4.6-3.8-8.4-8.4-8.4c-0.6,0-1.1,0.5-1.1,1.1
	c0,0.6,0.5,1.1,1.1,1.1c3.4,0,6.2,2.8,6.2,6.2c0,3.4-2.8,6.2-6.2,6.2h-8.9c-0.6,0-1.1,0.5-1.1,1.1c0,0.6,0.5,1.1,1.1,1.1h5.5v5.1
	C35.6,56.4,36.1,56.9,36.7,56.9z"/>
</svg>
