<?xml version="1.0" encoding="utf-8"?>
<!-- Generator: Adobe Illustrator 26.5.0, SVG Export Plug-In . SVG Version: 6.00 Build 0)  -->
<svg version="1.1" id="Layer_1" xmlns="http://www.w3.org/2000/svg" xmlns:xlink="http://www.w3.org/1999/xlink" x="0px" y="0px"
	 viewBox="0 0 75 75" style="enable-background:new 0 0 75 75;" xml:space="preserve">
<style type="text/css">
	.st0{fill:none;stroke:#333E48;stroke-width:2.3;stroke-linecap:round;}
	.st1{clip-path:url(#SVGID_00000052819583704403859340000007926837929186598036_);}
	.st2{fill-rule:evenodd;clip-rule:evenodd;fill:#E77204;}
	.st3{fill:#E77204;}
	.st4{clip-path:url(#SVGID_00000080923408874466007360000014438185249432045449_);}
	.st5{fill:#333E48;}
</style>
<line class="st0" x1="11.1" y1="73.8" x2="62.8" y2="73.8"/>
<g>
	<defs>
		<rect id="SVGID_1_" x="53" y="16" width="22" height="44"/>
	</defs>
	<clipPath id="SVGID_00000096746478917719446350000017289212106290807434_">
		<use xlink:href="#SVGID_1_"  style="overflow:visible;"/>
	</clipPath>
	<g style="clip-path:url(#SVGID_00000096746478917719446350000017289212106290807434_);">
		<g>
			<path class="st2" d="M53,59.9C53,59.9,53,59.9,53,59.9C53,59.9,53,59.9,53,59.9l0-43.8c0,0,0,0,0,0V16c0.7,0,1.5,0,2.2,0.1
				c0,0,0.1,0,0.1,0c0.1,0,0.1,0,0.2,0c0,0,0,0,0,0c0,0,0,0,0,0l0.1,0c0,0,0,0,0.1,0c0,0,0,0,0,0c0,0,0,0-0.1,0c0.2,0,0.3,0,0.4,0.1
				c0.1,0,0.2,0,0.2,0l0,0c0.2,0,0.2,0.1,0.2,0.1c0.1,0,0.2,0,0.3,0l0.1,0l0,0c0,0,0,0,0,0c0,0,0.1,0,0.1,0c0.1,0,0.1,0,0.1,0
				c0.2,0,0.4,0.1,0.6,0.1c0,0,0.1,0,0.1,0c0,0,0,0,0,0c0,0,0,0,0,0c0,0,0.1,0,0.1,0c0,0,0.1,0,0.2,0c0,0,0,0,0,0
				c0.1,0,0.2,0,0.2,0.1c0,0-0.1,0-0.1,0h0c0,0-0.1,0,0.1,0c0.1,0,0.2,0.1,0.3,0.1c0.1,0,0.2,0,0.3,0.1c0,0,0.1,0.1,0.3,0.1l0,0l0,0
				c0.1,0,0.2,0.1,0.3,0.1c0,0,0.1,0,0.3,0.1c0.2,0,0.4,0.1,0.5,0.1l0,0c0,0,0.2,0.1,0.3,0.2c0,0,0.1,0,0.1,0.1c0,0,0,0-0.1-0.1
				c0,0,0,0,0.1,0l0,0l0,0c0,0,0.1,0,0.1,0c0,0,0.1,0.1,0.2,0.1l0,0c0.1,0,0.2,0.1,0.2,0.1l0,0c0.2,0.1,0.3,0.1,0.5,0.2
				c0,0,0,0-0.1,0c0,0,0,0,0,0c0,0,0.1,0,0.1,0.1c0,0,0,0,0,0c0,0,0,0,0,0c0,0,0,0,0,0c0,0,0.1,0,0.1,0l-0.1-0.1
				c0.1,0,0.1,0,0.1,0.1c0,0,0,0,0.1,0c0,0,0,0,0,0c0,0,0,0,0,0c0,0,0,0,0,0l0,0l0,0h0c0,0-0.1,0-0.1,0c0.1,0.1,0.3,0.1,0.3,0.1
				c0,0,0,0,0.1,0.1c0.1,0.1,0.1,0.1,0.2,0c0,0,0,0,0.1,0c0,0,0.1,0,0.1,0c0.1,0,0.1,0.1,0.1,0.1c0.1,0,0.1,0,0.1,0c0,0,0,0,0,0
				c0,0,0.1,0.1,0.2,0.1c0.1,0.1,0.2,0.1,0.2,0.1c0,0,0,0,0,0l0,0c0,0,0,0,0,0l0,0l0,0c0.1,0.1,0.2,0.1,0.4,0.2
				c0.1,0,0.1,0.1,0.2,0.1l0,0c0.2,0.1,0.4,0.2,0.5,0.3l0,0c0.2,0.1,0.5,0.3,0.6,0.4c0.1,0,0.2,0.1,0.1,0c0,0,0.1,0,0.1,0.1
				c0.1,0.1,0.1,0.1,0.3,0.2c-0.1-0.1-0.1-0.1-0.1-0.1l0,0c0,0,0,0,0,0s0,0,0,0c0,0,0,0,0,0l0,0l0,0l0,0c0,0,0,0-0.1-0.1l0,0
				c0.2,0.1,0.2,0.1,0.4,0.3c-0.1-0.1,0.2,0.1,0.3,0.2l-0.2-0.1c0.1,0.1,0.2,0.1,0.3,0.2l0-0.1c0.2,0.1,0.3,0.2,0.5,0.4
				c0,0,0,0,0.1,0c0,0,0,0,0,0c0.2,0.1,0.3,0.3,0.5,0.4c0,0,0,0,0,0c0,0,0,0,0,0c-0.1,0-0.1-0.1-0.1,0c0.1,0.1,0.2,0.2,0.3,0.2l0,0
				l0,0l0,0c0.1,0,0.1,0.1,0.1,0.1c0.1,0.1,0.2,0.2,0.2,0.2c0,0.1,0.1,0.1,0.2,0.2c0,0-0.1,0,0.1,0.2c0.2,0.2,0.2,0.2,0.1,0
				c0,0,0,0,0,0c0,0,0,0,0,0c0,0,0,0,0,0c0,0,0,0,0,0c0,0,0,0,0,0l0,0c-0.1-0.1-0.1-0.1,0-0.1l0,0c0,0,0.1,0.1,0.1,0.1
				c0.1,0.1,0.2,0.2,0.2,0.1c0.1,0.1,0,0.1-0.1,0c0.2,0.2,0.3,0.3,0.5,0.5l0,0l0,0l0,0c0,0,0.1,0.1,0.1,0.1c0,0-0.1-0.1,0,0
				c0.2,0.2,0.2,0.2,0.2,0.2c0,0,0,0.1,0.1,0.1c0.1,0,0.1,0,0.1,0c0,0,0,0,0.1,0.1c0.1,0.1,0.1,0,0-0.1c0.1,0.2,0.3,0.3,0.4,0.4l0,0
				c0,0,0.1,0.1,0.1,0.1l-0.1-0.1c0,0.1,0.1,0.1,0.1,0.2l0,0l0,0l-0.1,0c0,0,0,0,0,0c0,0,0.1,0.1,0.1,0.1c0,0,0,0,0,0c0,0,0,0,0,0.1
				c0,0,0.1,0.1,0.2,0.2c0,0.1,0.1,0.1,0.1,0.1C70,24,70,24,70,24c0,0,0,0,0-0.1c0,0,0,0,0,0c0,0,0,0,0,0c0,0,0.1,0.1,0.1,0.1
				c0,0,0,0,0,0c0.1,0.1,0.1,0.2,0.2,0.2c0,0,0,0.1,0.1,0.2c0,0,0.1,0,0.1,0.1c-0.1-0.1-0.1,0,0,0.1c0.1,0.1,0.1,0.2,0.2,0.2
				c0,0,0,0.1,0.1,0.1l-0.1-0.1c0,0,0.1,0.1,0.1,0.2c0,0,0,0.1,0.1,0.1c0,0,0,0,0,0c0,0,0,0,0,0c0,0,0,0,0,0l0,0c0,0,0,0,0,0
				c0,0,0,0,0,0l0,0l0,0l0,0l0,0l0,0l0,0c0,0,0,0,0,0c0,0.1,0.1,0.1,0.1,0.2l0,0c0.1,0.1,0.1,0.2,0.2,0.3c0,0,0,0,0.1,0c0,0,0,0,0,0
				c0.1,0.1,0.1,0.2,0.2,0.3c0,0.1,0.1,0.1,0.2,0.3c0,0,0,0,0,0c0,0,0,0,0,0c0,0,0,0,0,0.1l0,0l0,0l0,0l-0.2-0.4l0.1,0.3
				c0-0.1-0.1-0.1-0.1-0.2c0-0.1-0.1-0.1-0.1-0.2c0,0,0,0,0,0l0,0c0,0,0,0.1,0,0.1c0,0,0,0,0,0c0,0,0,0,0,0c0.1,0.1,0.1,0.2,0.2,0.3
				c0,0.1,0.1,0.2,0.2,0.3l0.1,0c0.1,0.1,0.1,0.1,0.1,0.2c0,0.1,0.1,0.1,0.1,0.2l0,0c0.1,0.1,0.2,0.3,0.3,0.5l-0.1-0.1
				c0,0,0,0.1,0.1,0.2c0,0.1,0.1,0.1,0.1,0.2c0,0,0,0,0.1,0.1c0,0,0,0,0,0c0,0,0,0,0,0.1c0,0.1,0.1,0.2,0.1,0.3l0.1,0.2
				c0.1,0.2,0.1,0.3,0.2,0.4c0,0.1,0.1,0.2,0.1,0.3c0,0,0,0,0,0c0,0,0,0,0-0.1c0,0,0,0,0,0c0,0.1,0.1,0.2,0.1,0.2c0,0,0,0.1,0.1,0.2
				c0,0.1,0.1,0.2,0.1,0.2c0,0,0,0,0,0c0,0,0,0.1,0,0.2c0,0,0,0,0,0c0,0,0,0,0,0c0,0,0,0,0,0c0,0,0,0,0,0c0,0.1,0,0.1,0,0
				c0.1,0.2,0.2,0.4,0.3,0.6c0,0.1,0.1,0.2,0.1,0.3c0,0.1,0.1,0.3,0.1,0.4c0,0.1,0.1,0.2,0.1,0.3l0,0.1c0,0.1,0.1,0.3,0.1,0.4
				c0,0,0,0,0,0c0,0,0,0,0,0c0,0,0,0,0,0c0.1,0.1,0.1,0.2,0.1,0.3c0,0.1,0,0.1,0.1,0.3c0.1,0.1,0,0,0-0.1c0,0,0-0.1,0,0
				c0,0,0.1,0.1,0.1,0.3c0,0.1,0,0.1,0.1,0.2c0,0.1,0,0.1,0.1,0.2l0-0.1c0,0.1,0.1,0.2,0.1,0.4c0,0.1,0,0.3,0.1,0.4c0,0,0,0,0,0
				c0,0,0,0.1,0,0.2c0,0,0,0,0,0c0,0.1,0,0.1,0,0.2l0,0c0,0.1,0,0.3,0.1,0.4v0v0l0,0.1c0,0,0-0.1,0-0.1c0,0,0,0,0,0
				c0,0.1,0,0.1,0,0.1c0,0,0,0,0,0.2c0,0,0,0.1,0,0.1c0,0.1,0.1,0.2,0.1,0.2c0-0.1,0-0.1,0-0.2l0,0c0,0,0,0,0,0
				c0,0.1,0.1,0.2,0.1,0.3c0,0.1,0,0.1,0,0.2l0,0c0,0.2,0,0.3,0,0.4c0,0.1,0,0.2,0,0.4l0,0c0,0.1,0,0.2,0,0.2c0,0,0,0.1,0,0.2
				l0.1,0.1c0,0.2,0,0.5,0,0.8c0-0.1,0-0.3,0-0.5c0-0.1,0-0.1,0-0.2c0,0.1,0,0.5,0,0.6c0,0,0,0,0,0c0,0,0,0,0,0c0,0,0-0.1,0-0.1
				c0,0.2,0,0.4,0,0.7c0.1,0,0.1,0.2,0.1,0.5c0,0.2,0,0.4,0,0.5c0,0.2,0,0.5,0,0.7c0,0,0,0.1,0,0.1c0,0.1,0,0.1,0,0.2l0,0
				c0,0.2,0,0.4,0,0.7c0-0.1,0-0.1,0,0c0,0.1,0,0.2,0,0.1c0,0.1,0,0.1,0,0.1c0,0,0,0,0,0.1c0,0,0,0,0,0c0-0.1,0.1-0.1,0,0
				c0-0.1,0,0,0,0c0,0.1,0,0.1,0,0.1l0,0.4c0,0.1,0,0,0,0c0,0,0-0.1,0-0.1c0,0.2,0,0.2,0,0.2c0,0,0,0,0,0.1c0,0,0,0.1-0.1,0.3V41
				c0,0.2,0,0.3,0,0.4c0,0.1,0,0.2-0.1,0.4l0-0.1c0,0.1,0,0.2-0.1,0.3c-0.1,0.3-0.1,0.6-0.2,0.8c0,0,0,0.1,0,0
				c-0.1,0.3-0.1,0.6-0.2,0.8c-0.1,0.3-0.2,0.5-0.2,0.7l0,0c0,0,0,0.1,0,0.1c0,0.1,0,0.1-0.1,0.2c0,0,0,0,0,0c0,0,0,0,0,0
				c0,0,0,0,0,0l0,0v0c0,0.1-0.1,0.2-0.1,0.3l0.1-0.1c-0.1,0.4-0.2,0.6-0.3,0.9c0,0.1-0.1,0.2-0.1,0.3c0,0-0.1,0.4-0.2,0.6l0,0
				c-0.1,0.3-0.2,0.5-0.4,0.7c-0.1,0.2-0.2,0.3-0.2,0.4c0,0.1-0.1,0.2-0.1,0.2c0,0.1-0.1,0.2-0.1,0.3c0,0,0,0.1,0,0.1l0,0
				c0,0,0,0.1-0.1,0.1c0,0.1-0.1,0.1-0.1,0.2l0,0c-0.1,0.2-0.3,0.5-0.4,0.7l0,0c0,0.1-0.1,0.1-0.1,0.2c0-0.1,0,0-0.1,0.1
				c0,0-0.1,0.1-0.1,0.2c-0.1,0.1-0.1,0.1-0.1,0.1l0,0c0,0.1-0.1,0.3-0.2,0.4c0,0,0,0,0,0.1l-0.1,0c-0.1,0.3-0.3,0.5-0.5,0.8
				c0,0,0,0-0.1,0.1c-0.2,0.2-0.4,0.4-0.4,0.6c0,0-0.1,0.1-0.1,0.1c-0.1,0.1-0.1,0.1-0.2,0.2l0,0c0,0.1-0.1,0.1-0.1,0.1
				c-0.2,0.2-0.3,0.3-0.5,0.6l0.1-0.1c-0.1,0.1-0.2,0.1-0.2,0.2c-0.1,0-0.1,0.1-0.2,0.2l0,0.1c-0.3,0.3-0.6,0.7-1,0.9h0
				c0,0,0,0,0.1,0c0,0,0,0-0.1,0.1c0,0-0.1,0.1-0.1,0.1c-0.1,0.1-0.1,0.1-0.2,0.2c-0.1,0.1-0.2,0.2-0.2,0.1c0,0-0.1,0.1-0.2,0.2
				c-0.1,0.1-0.3,0.2-0.4,0.3h0c0,0-0.1,0-0.1,0c-0.1,0.1-0.2,0.1-0.3,0.2c0,0,0,0.1,0,0c0,0,0,0,0,0c0,0,0,0,0,0
				c-0.1,0.1-0.1,0.1-0.1,0.1c0,0-0.1,0.1-0.2,0.1l0.1,0c-0.1,0.1-0.2,0.1-0.2,0.1c0,0,0,0-0.1,0c-0.1,0.1-0.4,0.3-0.4,0.3
				c0,0-0.2,0.1-0.3,0.1c0,0,0,0,0.1,0c-0.2,0.1-0.3,0.2-0.4,0.3c-0.1,0.1-0.2,0.1-0.3,0.2c0,0,0,0,0,0c0.2-0.2,0.4-0.3,0.4-0.3
				c0,0,0,0,0,0c0,0,0,0,0,0c0,0,0,0,0,0.1c0,0-0.1,0.1,0,0c0,0,0,0-0.1,0c-0.2,0.1-0.4,0.2-0.6,0.3c0,0,0,0,0,0l0,0
				c0,0-0.1,0.1-0.1,0.1c0,0,0,0,0,0c0,0-0.1,0-0.1,0.1c0,0-0.1,0.1-0.2,0.2c0,0-0.1,0-0.1,0.1c0,0,0,0,0,0c0,0,0,0,0,0c0,0,0,0,0,0
				l0,0c0,0,0,0,0.1-0.1c0,0,0,0,0,0c0,0,0,0,0,0l0,0c0,0,0.1,0,0.1-0.1c0,0,0.1-0.1,0.1-0.1c-0.1,0-0.2,0.1-0.3,0.2l0,0
				c0,0,0,0,0,0c0,0,0,0,0,0l0,0c-0.1,0-0.1,0-0.1,0c-0.1,0.1-0.2,0.2-0.3,0.2c-0.1,0.1-0.1,0.1-0.2,0.1c-0.1,0-0.1,0.1-0.2,0.1
				c-0.1,0.1-0.2,0.1-0.3,0.2c-0.2,0.1-0.4,0.1-0.5,0.2C62.1,58,62.1,58,62,58c0,0,0,0,0,0c0,0,0,0,0.1,0c0,0,0.1,0,0.1,0
				c-0.1,0-0.2,0.1-0.2,0.1c-0.2,0.1-0.4,0.2-0.4,0.1c-0.1,0.1-0.1,0.1-0.1,0c0,0,0,0-0.1,0.1l0.1,0c-0.3,0.2-0.6,0.3-0.9,0.3
				c-0.3,0.1-0.6,0.1-0.9,0.3c0,0,0,0-0.1,0c0,0,0.1,0,0.1,0c0,0,0,0,0,0c-0.7,0.2-1.4,0.4-2.2,0.6c-0.2,0-0.4,0.1-0.6,0.1
				c-0.2,0-0.3,0-0.3,0c0,0-0.1,0-0.1,0c0,0,0,0,0,0c0,0,0,0,0,0l-0.3,0c-0.2,0-0.3,0-0.5,0.1l0,0c-0.1,0-0.2,0-0.3,0.1
				c-0.1,0-0.2,0-0.3,0l0.1,0c-0.1,0-0.1,0-0.2,0c-0.2,0-0.3,0-0.3,0c0,0,0,0,0,0c0,0-0.1,0-0.1,0l0,0c-0.1,0-0.3,0-0.4,0
				c-0.2,0-0.2,0-0.2,0c0,0,0,0-0.3,0C53.3,60,53,60,53,59.9c0,0,0.2,0,0.2,0L53,59.9z M64.1,57c0,0,0,0-0.1,0.1l0,0c0,0,0,0,0,0h0
				L64.1,57z"/>
			<path class="st3" d="M53,59.9L53,59.9L53,59.9C53.1,59.9,53.1,59.9,53,59.9L53,59.9z"/>
			<path class="st3" d="M68.8,22.6L68.8,22.6C68.7,22.6,68.8,22.6,68.8,22.6z"/>
			<path class="st3" d="M63.2,18.5l-0.1-0.1C63.1,18.5,63.1,18.5,63.2,18.5C63.2,18.5,63.2,18.5,63.2,18.5z"/>
			<path class="st3" d="M60.6,17.3L60.6,17.3L60.6,17.3L60.6,17.3C60.6,17.3,60.6,17.3,60.6,17.3z"/>
			<path class="st3" d="M58.7,16.7C58.7,16.7,58.7,16.7,58.7,16.7C58.7,16.8,58.7,16.8,58.7,16.7C58.7,16.8,58.7,16.7,58.7,16.7
				C58.7,16.7,58.7,16.7,58.7,16.7z"/>
			<path class="st3" d="M62,17.9C62,17.9,62,17.9,62,17.9C62,17.9,62,17.9,62,17.9z"/>
			<path class="st3" d="M70.1,24L70.1,24C70,24,70.1,24,70.1,24z"/>
			<path class="st3" d="M72.5,27.7C72.5,27.7,72.4,27.6,72.5,27.7C72.4,27.6,72.4,27.6,72.5,27.7z"/>
			<path class="st3" d="M70.7,24.9L70.7,24.9C70.7,25,70.7,24.9,70.7,24.9z"/>
			<path class="st3" d="M73.2,29.2L73.2,29.2L73.2,29.2L73.2,29.2L73.2,29.2C73.2,29.2,73.2,29.2,73.2,29.2L73.2,29.2L73.2,29.2
				C73.2,29.2,73.2,29.2,73.2,29.2z"/>
			<path class="st3" d="M73.2,29.2C73.2,29.3,73.2,29.3,73.2,29.2C73.2,29.3,73.2,29.3,73.2,29.2C73.2,29.3,73.2,29.3,73.2,29.2z"/>
			<path class="st3" d="M73.8,30.8L73.8,30.8L73.8,30.8L73.8,30.8C73.8,30.8,73.8,30.8,73.8,30.8C73.8,30.8,73.8,30.8,73.8,30.8
				C73.8,30.8,73.8,30.8,73.8,30.8z"/>
			<path class="st3" d="M57.4,16.4L57.4,16.4L57.4,16.4L57.4,16.4z"/>
			<path class="st3" d="M57.4,16.4l-0.3,0c0.1,0,0.1,0,0,0c0.2,0,0.2,0,0.2,0C57.2,16.4,57.2,16.4,57.4,16.4z"/>
			<path class="st3" d="M58.4,16.6C58.3,16.6,58.3,16.6,58.4,16.6C58.4,16.6,58.4,16.6,58.4,16.6C58.5,16.7,58.5,16.7,58.4,16.6z"/>
			<path class="st2" d="M65,19.5L65,19.5C65,19.5,65,19.5,65,19.5z M65,19.5L65,19.5C65,19.5,65,19.5,65,19.5
				C65,19.5,65,19.5,65,19.5z"/>
			<path class="st3" d="M66.7,20.7L66.7,20.7l0.2,0.1L66.7,20.7z"/>
			<path class="st3" d="M73.7,30.5L73.7,30.5C73.6,30.4,73.7,30.4,73.7,30.5z"/>
			<path class="st3" d="M74.9,35.9c0-0.1,0-0.2,0-0.3c0,0,0,0.1,0,0.1v0C74.9,35.8,74.9,35.9,74.9,35.9z"/>
			<path class="st3" d="M71.1,50.6L71.1,50.6L71.1,50.6L71.1,50.6z"/>
		</g>
	</g>
</g>
<g>
	<defs>
		<rect id="SVGID_00000041273055898345369050000000138001687920254898_" x="7" y="7" width="60" height="60"/>
	</defs>
	<clipPath id="SVGID_00000075860063252544097550000000989672911523264175_">
		<use xlink:href="#SVGID_00000041273055898345369050000000138001687920254898_"  style="overflow:visible;"/>
	</clipPath>
	<g style="clip-path:url(#SVGID_00000075860063252544097550000000989672911523264175_);">
		<path class="st5" d="M38.2,7v28.8l3.4,0l3.6,0l2.3,0l3.6,0l2.3,0l3.7,0l6.7,0l3.2,0v30c0,0.3-0.1,0.7-0.4,0.9
			c-0.2,0.2-0.4,0.3-0.7,0.4l0,0l-30.2,0l0-28.8l-4.3,0l-3.7,0l-2.3,0l-3.6,0l-2.3,0l-3.7,0l-5.7,0l-3,0v-30c0-0.3,0.1-0.7,0.4-0.9
			C7.6,7.2,7.8,7,8.1,7l0,0L38.2,7z M60.1,57.8c-1.2-0.6-2.6-1-4.1-0.9c-1.5,0-2.9,0.3-4.2,1c-1.6,0.9-3.5,1.3-5.4,1.3
			c-1.8,0-3.5-0.4-5.1-1.2l-0.1,0l-0.1-0.1l-0.1-0.1l-0.1-0.1l-0.1-0.1c-0.5-0.3-1.1-0.5-1.7-0.6l-0.1,0l-0.8-0.2v7.4h26.2v-5.2
			l-0.6-0.1l-0.1,0l-0.1,0c-1-0.2-2.1-0.5-3-1L60.4,58l-0.1-0.1L60.1,57.8L60.1,57.8z M60.1,52c-1.2-0.7-2.6-1-4.1-0.9
			c-1.5,0-2.9,0.3-4.2,1c-1.6,0.9-3.5,1.3-5.3,1.3c-1.8,0-3.5-0.4-5.1-1.2l-0.1-0.1L41.2,52L41.1,52L41,51.9l-0.1-0.1
			c-0.5-0.3-1.1-0.5-1.7-0.6l-0.1,0l-0.8-0.2v3.5l0.6,0.1l0.1,0l0.1,0c1,0.2,2.1,0.5,3,1l0.1,0.1l0.1,0.1l0.1,0l0.1,0
			c1.2,0.7,2.6,1,4.1,0.9c1.5,0,2.9-0.3,4.2-1c1.6-0.9,3.5-1.3,5.3-1.3c1.8,0,3.5,0.4,5.1,1.2l0.1,0l0.1,0.1l0.1,0.1l0.1,0.1
			l0.1,0.1c0.5,0.3,1.1,0.5,1.7,0.6l0.1,0l0.8,0.2v-3.5l-0.6-0.1l-0.1,0l-0.1,0c-1-0.2-2.1-0.5-3-1l-0.1-0.1L60.3,52L60.1,52
			L60.1,52z M60.1,45.9c-1.2-0.7-2.6-1-4.1-0.9c-1.5,0-2.9,0.3-4.2,1c-1.6,0.9-3.5,1.3-5.3,1.3c-1.8,0-3.5-0.4-5.1-1.2L41.3,46
			L41.2,46l-0.1-0.1L41,45.9l-0.1-0.1c-0.5-0.3-1.1-0.5-1.7-0.6l-0.1,0L38.2,45v3.5l0.6,0.1l0.1,0l0.1,0c1,0.2,2.1,0.5,3,1l0.1,0.1
			l0.1,0.1l0.1,0l0.1,0c1.2,0.7,2.6,1,4.1,0.9c1.5,0,2.9-0.3,4.2-1c1.6-0.9,3.5-1.3,5.3-1.3c1.8,0,3.5,0.4,5.1,1.2l0.1,0l0.1,0.1
			l0.1,0.1l0.1,0.1l0.1,0.1c0.5,0.3,1.1,0.5,1.7,0.6l0.1,0l0.8,0.2v-3.5l-0.6-0.1l-0.1,0l-0.1,0c-1-0.2-2.1-0.5-3-1l-0.1-0.1
			L60.3,46L60.1,45.9L60.1,45.9z M64.4,38.2H38.2v4.2l0.6,0.1l0.1,0l0.1,0c1,0.2,2.1,0.5,3,1l0.1,0.1l0.1,0.1l0.1,0l0.1,0
			c1.2,0.6,2.6,0.9,4.1,0.9c1.5,0,2.9-0.3,4.2-1c1.6-0.9,3.5-1.3,5.4-1.3c1.8,0,3.6,0.4,5.1,1.2l0.1,0l0.1,0.1l0.1,0.1l0.1,0.1
			l0.1,0.1c0.5,0.3,1.1,0.4,1.6,0.6l0.1,0l0.8,0.2V38.2z M31.4,30.2c-1.2-0.6-2.6-0.9-4.1-0.9c-1.5,0-2.9,0.3-4.2,1
			c-1.7,0.8-3.5,1.3-5.3,1.3c-1.8,0-3.5-0.4-5.1-1.2l-0.1-0.1l-0.1,0l-0.1-0.1l-0.1-0.1l-0.1-0.1c-0.5-0.3-1.1-0.4-1.7-0.6l-0.1,0
			l-0.8-0.2v6.4h26.2v-4.2L35,31.4l-0.1,0l-0.1,0c-1-0.2-2.1-0.5-3-1l-0.1-0.1l-0.1-0.1L31.4,30.2L31.4,30.2z M31.4,24.2
			c-1.2-0.7-2.6-1-4.1-0.9c-1.5,0-2.9,0.3-4.2,1c-1.7,0.9-3.5,1.3-5.3,1.3c-1.8,0-3.5-0.4-5.1-1.2l-0.1-0.1l-0.1,0l-0.1-0.1
			l-0.1-0.1l-0.1-0.1c-0.5-0.3-1.1-0.5-1.7-0.6l-0.1,0l-0.8-0.2v3.5l0.6,0.1l0.1,0l0.1,0c1.1,0.2,2.2,0.6,3.2,1.1
			c1.3,0.7,2.8,1,4.2,1c1.5,0,2.9-0.4,4.2-1c1.6-0.9,3.5-1.3,5.3-1.3c1.8,0,3.5,0.4,5.1,1.2l0.1,0.1l0.1,0.1l0.1,0.1l0.1,0.1
			l0.1,0.1c0.5,0.3,1.1,0.5,1.7,0.6l0.1,0l0.8,0.2v-3.5L35,25.5l-0.1,0l-0.1,0c-1-0.2-2.1-0.5-3-1l-0.1-0.1l-0.1-0.1L31.4,24.2
			L31.4,24.2z M31.4,18.1c-1.2-0.7-2.6-1-4.1-0.9c-1.5,0-2.9,0.3-4.2,1c-1.7,0.9-3.5,1.3-5.3,1.3c-1.8,0-3.5-0.4-5.1-1.2l-0.1-0.1
			l-0.1,0l-0.1-0.1l-0.1-0.1L12.1,18c-0.5-0.3-1.1-0.5-1.7-0.6l-0.1,0l-0.8-0.2v3.5l0.6,0.1l0.1,0l0.1,0c1.1,0.2,2.2,0.6,3.2,1.1
			c1.3,0.7,2.8,1,4.2,1c1.5,0,2.9-0.4,4.2-1c1.6-0.9,3.5-1.3,5.3-1.3c1.8,0,3.5,0.4,5.1,1.2l0.1,0.1l0.1,0.1l0.1,0.1l0.1,0.1
			l0.1,0.1c0.5,0.3,1.1,0.5,1.7,0.6l0.1,0l0.8,0.2v-3.5L35,19.4l-0.1,0l-0.1,0c-1-0.2-2.1-0.5-3-1l-0.1-0.1l-0.1-0.1L31.4,18.1
			L31.4,18.1z M35.6,9.6H9.4l0,5.3l0.4,0l0.1,0c1.3,0.2,2.5,0.6,3.6,1.2c1.3,0.7,2.8,1,4.2,1c1.5,0,2.9-0.3,4.2-1
			c1.6-0.9,3.5-1.3,5.3-1.3c1.8,0,3.6,0.4,5.1,1.2l0.1,0l0.1,0.1l0.1,0.1l0.1,0.1l0.1,0.1c0.5,0.3,1.1,0.5,1.7,0.6l0.1,0l0.8,0.2
			V9.6z"/>
	</g>
</g>
</svg>
