<?xml version="1.0" encoding="utf-8"?>
<!-- Generator: Adobe Illustrator 26.5.0, SVG Export Plug-In . SVG Version: 6.00 Build 0)  -->
<svg version="1.1" id="Layer_1" xmlns="http://www.w3.org/2000/svg" xmlns:xlink="http://www.w3.org/1999/xlink" x="0px" y="0px"
	 viewBox="0 0 75 75" style="enable-background:new 0 0 75 75;" xml:space="preserve">
<style type="text/css">
	.st0{fill:#E77204;}
	.st1{fill:#333E48;}
	.st2{fill:none;stroke:#333E48;stroke-width:2.3;stroke-linecap:round;}
</style>
<g>
	<circle class="st0" cx="56.5" cy="24.8" r="18.5"/>
</g>
<path class="st1" d="M37.1,64.6c3.5-1.4,24.1-8.4,24.1-25.8V19c-3.6-0.2-12.8-1.3-20.6-8.7c-1-0.9-2.2-1.4-3.5-1.4
	c-1.2,0-2.5,0.5-3.5,1.4c-7.8,7.3-17,8.5-20.6,8.7v19.8C13,56.2,33.5,63.2,37.1,64.6L37.1,64.6z M64.1,38.8
	c0,21.1-26.5,28.7-26.6,28.8c-0.3,0.1-0.7,0.1-1,0c-0.1,0-26.6-7.7-26.6-28.8V17.5h0l0-0.1c0-0.8,0.7-1.5,1.6-1.4c0,0,11,0.6,20-7.9
	C33.1,6.7,35.1,6,37.1,6c2,0,3.9,0.7,5.5,2.2c8.5,8,18.8,7.9,19.9,7.9c0.1,0,0.1,0,0.2,0c0.8,0,1.5,0.7,1.5,1.5L64.1,38.8L64.1,38.8
	z"/>
<path class="st1" d="M24.4,35.8c-0.6,0.6-0.6,1.5,0,2.1l0,0l9.4,9c0.6,0.6,1.5,0.6,2.1,0c0,0,0.1-0.1,0.1-0.1l14.8-15.9
	c0.6-0.6,0.5-1.5-0.1-2.1c-0.6-0.6-1.5-0.5-2.1,0.1L34.8,43.7l-8.3-8C25.9,35.2,25,35.2,24.4,35.8z"/>
<line class="st2" x1="11.1" y1="73.8" x2="62.8" y2="73.8"/>
</svg>
